<svg id="Layer_1" data-name="Layer 1" xmlns="http://www.w3.org/2000/svg" viewBox="0 0 588.62 132.23"><defs><style>.cls-1{fill:#18b3af;}.cls-2{fill:#aed552;}.cls-3{fill:#68cbef;}.cls-4{fill:#f1954d;}.cls-5{fill:#ec5481;}</style></defs><path class="cls-1" d="M125.06,95.73a38.67,38.67,0,1,1,38.67-38.67A38.71,38.71,0,0,1,125.06,95.73Zm0-59.89a21.23,21.23,0,1,0,21.23,21.22A21.24,21.24,0,0,0,125.06,35.84Z"/><path class="cls-1" d="M211.45,95.73a38.67,38.67,0,1,1,33.68-57.68,2.19,2.19,0,0,1-.95,3l-11.75,5.75a2.2,2.2,0,0,1-2.83-.79,21.32,21.32,0,0,0-6.76-6.9,21.25,21.25,0,0,0-28.9,5.9,20.4,20.4,0,0,0-3.36,8.09,21.24,21.24,0,0,0,31.56,22.27,21.56,21.56,0,0,0,6.52-5.91,2.2,2.2,0,0,1,2.9-.64l11.29,6.65a2.18,2.18,0,0,1,.72,3.1,38.61,38.61,0,0,1-32.12,17.12Z"/><path class="cls-1" d="M77.3,55.62V8.5A7.58,7.58,0,0,0,63.94,3.58l-14,16.49a38.67,38.67,0,1,0,27.42,37C77.34,56.58,77.32,56.1,77.3,55.62ZM38.67,78.29A21.23,21.23,0,1,1,59.9,57.06,21.25,21.25,0,0,1,38.67,78.29Z"/><path class="cls-1" d="M296.94,95.73a38.67,38.67,0,1,1,38.67-38.67A38.7,38.7,0,0,1,296.94,95.73Zm0-59.89a21.23,21.23,0,1,0,21.22,21.22A21.25,21.25,0,0,0,296.94,35.84Z"/><path class="cls-1" d="M296.9,132.23a57.89,57.89,0,0,1-51.46-30.89,2,2,0,0,1,.88-2.77l11.3-5.51a2,2,0,0,1,2.63.83,41.74,41.74,0,0,0,73.09.39,2,2,0,0,1,2.64-.81l11.24,5.63a2,2,0,0,1,.85,2.78A58,58,0,0,1,296.9,132.23Z"/><rect class="cls-2" x="421.45" y="24.5" width="17.45" height="71.53" rx="2.6"/><path class="cls-3" d="M411.41,88.25,384.82,58l13.93-12.26a15,15,0,0,0,1.35-21.1h0a2.5,2.5,0,0,0-3.52-.22L367,50.49V14.29A14.29,14.29,0,0,0,352.7,0a3.15,3.15,0,0,0-3.15,3.15V92.8A3.15,3.15,0,0,0,352.7,96h11.14A3.16,3.16,0,0,0,367,92.8V73.72l4.73-4.16,19,21.58a14.48,14.48,0,0,0,20.43,1.31A3,3,0,0,0,411.41,88.25Z"/><circle class="cls-2" cx="430.03" cy="9.64" r="9.16"/><path class="cls-4" d="M561.15,95.83a38.79,38.79,0,0,1-29.24-13,2.07,2.07,0,0,1,.24-3L541.87,72a2.06,2.06,0,0,1,2.8.21,22.37,22.37,0,0,0,18.39,6.92l.44-.06A11.69,11.69,0,0,0,570.73,76a4.41,4.41,0,0,0,1.3-3.53A4.82,4.82,0,0,0,570,69a22.34,22.34,0,0,0-2.82-1.67A29.45,29.45,0,0,0,560,64.88c-10.13-2.09-17.51-6.2-21.93-12.22a19.28,19.28,0,0,1-3.94-10.44c-.74-9.27,3.67-17.09,12.13-21.46a29.29,29.29,0,0,1,18.51-2.67A34.47,34.47,0,0,1,587.49,32a2.07,2.07,0,0,1-.7,3l-10.73,6a2.4,2.4,0,0,1-3-.51,18.53,18.53,0,0,0-11-6,13,13,0,0,0-8.12,1c-3,1.53-3.43,3.26-3.22,5.54l0,.45c.4,1.74,3.48,5.29,12.66,7.19a45.79,45.79,0,0,1,11.22,3.83,37.44,37.44,0,0,1,5,3,21.36,21.36,0,0,1,8.95,15.69,21,21,0,0,1-6.17,16.67,28.25,28.25,0,0,1-16.91,7.75A30.56,30.56,0,0,1,561.15,95.83Z"/><path class="cls-5" d="M524.93,55.62V8.5a7.59,7.59,0,0,0-13.37-4.92l-14,16.49a38.67,38.67,0,1,0,27.42,37C525,56.58,524.94,56.1,524.93,55.62ZM486.29,78.29a21.23,21.23,0,1,1,21.23-21.23A21.25,21.25,0,0,1,486.29,78.29Z"/></svg>